<svg width="200" height="35" viewBox="0 0 200 35" fill="none" xmlns="http://www.w3.org/2000/svg">
<path d="M10.252 17.877H3.73047V13.7637H10.252C11.2598 13.7637 12.0801 13.5996 12.7129 13.2715C13.3457 12.9316 13.8086 12.4629 14.1016 11.8652C14.3945 11.2676 14.541 10.5938 14.541 9.84375C14.541 9.08203 14.3945 8.37305 14.1016 7.7168C13.8086 7.06055 13.3457 6.5332 12.7129 6.13477C12.0801 5.73633 11.2598 5.53711 10.252 5.53711H5.55859V27H0.285156V1.40625H10.252C12.2559 1.40625 13.9727 1.76953 15.4023 2.49609C16.8438 3.21094 17.9453 4.20117 18.707 5.4668C19.4688 6.73242 19.8496 8.17969 19.8496 9.80859C19.8496 11.4609 19.4688 12.8906 18.707 14.0977C17.9453 15.3047 16.8438 16.2363 15.4023 16.8926C13.9727 17.5488 12.2559 17.877 10.252 17.877ZM34.4219 22.4473V7.98047H39.4844V27H34.7207L34.4219 22.4473ZM34.9844 18.5449L36.4785 18.5098C36.4785 19.7754 36.332 20.9531 36.0391 22.043C35.7461 23.1211 35.3066 24.0586 34.7207 24.8555C34.1348 25.6406 33.3965 26.2559 32.5059 26.7012C31.6152 27.1348 30.5664 27.3516 29.3594 27.3516C28.4336 27.3516 27.5781 27.2227 26.793 26.9648C26.0195 26.6953 25.3516 26.2793 24.7891 25.7168C24.2383 25.1426 23.8047 24.4102 23.4883 23.5195C23.1836 22.6172 23.0312 21.5332 23.0312 20.2676V7.98047H28.0938V20.3027C28.0938 20.8652 28.1582 21.3398 28.2871 21.7266C28.4277 22.1133 28.6211 22.4297 28.8672 22.6758C29.1133 22.9219 29.4004 23.0977 29.7285 23.2031C30.0684 23.3086 30.4434 23.3613 30.8535 23.3613C31.8965 23.3613 32.7168 23.1504 33.3145 22.7285C33.9238 22.3066 34.3516 21.7324 34.5977 21.0059C34.8555 20.2676 34.9844 19.4473 34.9844 18.5449ZM54.584 22.8516V0H59.6816V27H55.0938L54.584 22.8516ZM42.5605 17.7188V17.3496C42.5605 15.8965 42.7246 14.5781 43.0527 13.3945C43.3809 12.1992 43.8613 11.1738 44.4941 10.3184C45.127 9.46289 45.9062 8.80078 46.832 8.33203C47.7578 7.86328 48.8125 7.62891 49.9961 7.62891C51.1094 7.62891 52.082 7.86328 52.9141 8.33203C53.7578 8.80078 54.4727 9.46875 55.0586 10.3359C55.6562 11.1914 56.1367 12.2051 56.5 13.377C56.8633 14.5371 57.127 15.8086 57.291 17.1914V18C57.127 19.3242 56.8633 20.5547 56.5 21.6914C56.1367 22.8281 55.6562 23.8242 55.0586 24.6797C54.4727 25.5234 53.7578 26.1797 52.9141 26.6484C52.0703 27.1172 51.0859 27.3516 49.9609 27.3516C48.7773 27.3516 47.7227 27.1113 46.7969 26.6309C45.8828 26.1504 45.1094 25.4766 44.4766 24.6094C43.8555 23.7422 43.3809 22.7227 43.0527 21.5508C42.7246 20.3789 42.5605 19.1016 42.5605 17.7188ZM47.623 17.3496V17.7188C47.623 18.5039 47.6816 19.2363 47.7988 19.916C47.9277 20.5957 48.1328 21.1992 48.4141 21.7266C48.707 22.2422 49.082 22.6465 49.5391 22.9395C50.0078 23.2207 50.5762 23.3613 51.2441 23.3613C52.1113 23.3613 52.8262 23.168 53.3887 22.7812C53.9512 22.3828 54.3789 21.8379 54.6719 21.1465C54.9766 20.4551 55.1523 19.6582 55.1992 18.7559V16.4531C55.1641 15.7148 55.0586 15.0527 54.8828 14.4668C54.7188 13.8691 54.4727 13.3594 54.1445 12.9375C53.8281 12.5156 53.4297 12.1875 52.9492 11.9531C52.4805 11.7188 51.9238 11.6016 51.2793 11.6016C50.623 11.6016 50.0605 11.7539 49.5918 12.0586C49.123 12.3516 48.7422 12.7559 48.4492 13.2715C48.168 13.7871 47.957 14.3965 47.8164 15.0996C47.6875 15.791 47.623 16.541 47.623 17.3496ZM74.8691 22.8516V0H79.9668V27H75.3789L74.8691 22.8516ZM62.8457 17.7188V17.3496C62.8457 15.8965 63.0098 14.5781 63.3379 13.3945C63.666 12.1992 64.1465 11.1738 64.7793 10.3184C65.4121 9.46289 66.1914 8.80078 67.1172 8.33203C68.043 7.86328 69.0977 7.62891 70.2812 7.62891C71.3945 7.62891 72.3672 7.86328 73.1992 8.33203C74.043 8.80078 74.7578 9.46875 75.3438 10.3359C75.9414 11.1914 76.4219 12.2051 76.7852 13.377C77.1484 14.5371 77.4121 15.8086 77.5762 17.1914V18C77.4121 19.3242 77.1484 20.5547 76.7852 21.6914C76.4219 22.8281 75.9414 23.8242 75.3438 24.6797C74.7578 25.5234 74.043 26.1797 73.1992 26.6484C72.3555 27.1172 71.3711 27.3516 70.2461 27.3516C69.0625 27.3516 68.0078 27.1113 67.082 26.6309C66.168 26.1504 65.3945 25.4766 64.7617 24.6094C64.1406 23.7422 63.666 22.7227 63.3379 21.5508C63.0098 20.3789 62.8457 19.1016 62.8457 17.7188ZM67.9082 17.3496V17.7188C67.9082 18.5039 67.9668 19.2363 68.084 19.916C68.2129 20.5957 68.418 21.1992 68.6992 21.7266C68.9922 22.2422 69.3672 22.6465 69.8242 22.9395C70.293 23.2207 70.8613 23.3613 71.5293 23.3613C72.3965 23.3613 73.1113 23.168 73.6738 22.7812C74.2363 22.3828 74.6641 21.8379 74.957 21.1465C75.2617 20.4551 75.4375 19.6582 75.4844 18.7559V16.4531C75.4492 15.7148 75.3438 15.0527 75.168 14.4668C75.0039 13.8691 74.7578 13.3594 74.4297 12.9375C74.1133 12.5156 73.7148 12.1875 73.2344 11.9531C72.7656 11.7188 72.209 11.6016 71.5645 11.6016C70.9082 11.6016 70.3457 11.7539 69.877 12.0586C69.4082 12.3516 69.0273 12.7559 68.7344 13.2715C68.4531 13.7871 68.2422 14.3965 68.1016 15.0996C67.9727 15.791 67.9082 16.541 67.9082 17.3496ZM89.2656 7.98047V27H84.1855V7.98047H89.2656ZM83.8691 3.02344C83.8691 2.28516 84.127 1.67578 84.6426 1.19531C85.1582 0.714844 85.8496 0.474609 86.7168 0.474609C87.5723 0.474609 88.2578 0.714844 88.7734 1.19531C89.3008 1.67578 89.5645 2.28516 89.5645 3.02344C89.5645 3.76172 89.3008 4.37109 88.7734 4.85156C88.2578 5.33203 87.5723 5.57227 86.7168 5.57227C85.8496 5.57227 85.1582 5.33203 84.6426 4.85156C84.127 4.37109 83.8691 3.76172 83.8691 3.02344ZM98.4062 12.041V27H93.3438V7.98047H98.0898L98.4062 12.041ZM97.668 16.8223H96.2969C96.2969 15.416 96.4785 14.1504 96.8418 13.0254C97.2051 11.8887 97.7148 10.9219 98.3711 10.125C99.0273 9.31641 99.8066 8.70117 100.709 8.2793C101.623 7.8457 102.643 7.62891 103.768 7.62891C104.658 7.62891 105.473 7.75781 106.211 8.01562C106.949 8.27344 107.582 8.68359 108.109 9.24609C108.648 9.80859 109.059 10.5527 109.34 11.4785C109.633 12.4043 109.779 13.5352 109.779 14.8711V27H104.682V14.8535C104.682 14.0098 104.564 13.3535 104.33 12.8848C104.096 12.416 103.75 12.0879 103.293 11.9004C102.848 11.7012 102.297 11.6016 101.641 11.6016C100.961 11.6016 100.369 11.7363 99.8652 12.0059C99.373 12.2754 98.9629 12.6504 98.6348 13.1309C98.3184 13.5996 98.0781 14.1504 97.9141 14.7832C97.75 15.416 97.668 16.0957 97.668 16.8223ZM125.67 7.98047H130.258V26.3672C130.258 28.1016 129.871 29.5723 129.098 30.7793C128.336 31.998 127.27 32.918 125.898 33.5391C124.527 34.1719 122.934 34.4883 121.117 34.4883C120.32 34.4883 119.477 34.3828 118.586 34.1719C117.707 33.9609 116.863 33.6328 116.055 33.1875C115.258 32.7422 114.59 32.1797 114.051 31.5L116.283 28.5117C116.869 29.1914 117.549 29.7188 118.322 30.0938C119.096 30.4805 119.951 30.6738 120.889 30.6738C121.803 30.6738 122.576 30.5039 123.209 30.1641C123.842 29.8359 124.328 29.3496 124.668 28.7051C125.008 28.0723 125.178 27.3047 125.178 26.4023V12.375L125.67 7.98047ZM112.873 17.7188V17.3496C112.873 15.8965 113.049 14.5781 113.4 13.3945C113.764 12.1992 114.273 11.1738 114.93 10.3184C115.598 9.46289 116.406 8.80078 117.355 8.33203C118.305 7.86328 119.377 7.62891 120.572 7.62891C121.838 7.62891 122.898 7.86328 123.754 8.33203C124.609 8.80078 125.312 9.46875 125.863 10.3359C126.414 11.1914 126.842 12.2051 127.146 13.377C127.463 14.5371 127.709 15.8086 127.885 17.1914V18C127.709 19.3242 127.445 20.5547 127.094 21.6914C126.742 22.8281 126.279 23.8242 125.705 24.6797C125.131 25.5234 124.416 26.1797 123.561 26.6484C122.717 27.1172 121.709 27.3516 120.537 27.3516C119.365 27.3516 118.305 27.1113 117.355 26.6309C116.418 26.1504 115.615 25.4766 114.947 24.6094C114.279 23.7422 113.764 22.7227 113.4 21.5508C113.049 20.3789 112.873 19.1016 112.873 17.7188ZM117.936 17.3496V17.7188C117.936 18.5039 118.012 19.2363 118.164 19.916C118.316 20.5957 118.551 21.1992 118.867 21.7266C119.195 22.2422 119.6 22.6465 120.08 22.9395C120.572 23.2207 121.152 23.3613 121.82 23.3613C122.746 23.3613 123.502 23.168 124.088 22.7812C124.674 22.3828 125.113 21.8379 125.406 21.1465C125.699 20.4551 125.869 19.6582 125.916 18.7559V16.4531C125.893 15.7148 125.793 15.0527 125.617 14.4668C125.441 13.8691 125.195 13.3594 124.879 12.9375C124.562 12.5156 124.152 12.1875 123.648 11.9531C123.145 11.7188 122.547 11.6016 121.855 11.6016C121.188 11.6016 120.607 11.7539 120.115 12.0586C119.635 12.3516 119.23 12.7559 118.902 13.2715C118.586 13.7871 118.346 14.3965 118.182 15.0996C118.018 15.791 117.936 16.541 117.936 17.3496Z" fill="#760BFF"/>
<path d="M138.59 1.40625V27H135.197V1.40625H138.59ZM149.312 12.9199V15.6973H137.852V12.9199H149.312ZM151.053 1.40625V4.18359H137.852V1.40625H151.053ZM162.109 27.3516C160.785 27.3516 159.584 27.1289 158.506 26.6836C157.439 26.2266 156.52 25.5879 155.746 24.7676C154.984 23.9473 154.398 22.9746 153.988 21.8496C153.578 20.7246 153.373 19.4941 153.373 18.1582V17.4199C153.373 15.873 153.602 14.4961 154.059 13.2891C154.516 12.0703 155.137 11.0391 155.922 10.1953C156.707 9.35156 157.598 8.71289 158.594 8.2793C159.59 7.8457 160.621 7.62891 161.688 7.62891C163.047 7.62891 164.219 7.86328 165.203 8.33203C166.199 8.80078 167.014 9.45703 167.646 10.3008C168.279 11.1328 168.748 12.1172 169.053 13.2539C169.357 14.3789 169.51 15.6094 169.51 16.9453V18.4043H155.307V15.75H166.258V15.5039C166.211 14.6602 166.035 13.8398 165.73 13.043C165.438 12.2461 164.969 11.5898 164.324 11.0742C163.68 10.5586 162.801 10.3008 161.688 10.3008C160.949 10.3008 160.27 10.459 159.648 10.7754C159.027 11.0801 158.494 11.5371 158.049 12.1465C157.604 12.7559 157.258 13.5 157.012 14.3789C156.766 15.2578 156.643 16.2715 156.643 17.4199V18.1582C156.643 19.0605 156.766 19.9102 157.012 20.707C157.27 21.4922 157.639 22.1836 158.119 22.7812C158.611 23.3789 159.203 23.8477 159.895 24.1875C160.598 24.5273 161.395 24.6973 162.285 24.6973C163.434 24.6973 164.406 24.4629 165.203 23.9941C166 23.5254 166.697 22.8984 167.295 22.1133L169.264 23.6777C168.854 24.2988 168.332 24.8906 167.699 25.4531C167.066 26.0156 166.287 26.4727 165.361 26.8242C164.447 27.1758 163.363 27.3516 162.109 27.3516ZM184.381 21.9551C184.381 21.4863 184.275 21.0527 184.064 20.6543C183.865 20.2441 183.449 19.875 182.816 19.5469C182.195 19.207 181.258 18.9141 180.004 18.668C178.949 18.4453 177.994 18.1816 177.139 17.877C176.295 17.5723 175.574 17.2031 174.977 16.7695C174.391 16.3359 173.939 15.8262 173.623 15.2402C173.307 14.6543 173.148 13.9688 173.148 13.1836C173.148 12.4336 173.312 11.7246 173.641 11.0566C173.98 10.3887 174.455 9.79688 175.064 9.28125C175.686 8.76563 176.43 8.36133 177.297 8.06836C178.164 7.77539 179.131 7.62891 180.197 7.62891C181.721 7.62891 183.021 7.89844 184.1 8.4375C185.178 8.97656 186.004 9.69727 186.578 10.5996C187.152 11.4902 187.439 12.4805 187.439 13.5703H184.188C184.188 13.043 184.029 12.5332 183.713 12.041C183.408 11.5371 182.957 11.1211 182.359 10.793C181.773 10.4648 181.053 10.3008 180.197 10.3008C179.295 10.3008 178.562 10.4414 178 10.7227C177.449 10.9922 177.045 11.3379 176.787 11.7598C176.541 12.1816 176.418 12.627 176.418 13.0957C176.418 13.4473 176.477 13.7637 176.594 14.0449C176.723 14.3145 176.945 14.5664 177.262 14.8008C177.578 15.0234 178.023 15.2344 178.598 15.4336C179.172 15.6328 179.904 15.832 180.795 16.0312C182.354 16.3828 183.637 16.8047 184.645 17.2969C185.652 17.7891 186.402 18.3926 186.895 19.1074C187.387 19.8223 187.633 20.6895 187.633 21.709C187.633 22.541 187.457 23.3027 187.105 23.9941C186.766 24.6855 186.268 25.2832 185.611 25.7871C184.967 26.2793 184.193 26.666 183.291 26.9473C182.4 27.2168 181.398 27.3516 180.285 27.3516C178.609 27.3516 177.191 27.0527 176.031 26.4551C174.871 25.8574 173.992 25.084 173.395 24.1348C172.797 23.1855 172.498 22.1836 172.498 21.1289H175.768C175.814 22.0195 176.072 22.7285 176.541 23.2559C177.01 23.7715 177.584 24.1406 178.264 24.3633C178.943 24.5742 179.617 24.6797 180.285 24.6797C181.176 24.6797 181.92 24.5625 182.518 24.3281C183.127 24.0938 183.59 23.7715 183.906 23.3613C184.223 22.9512 184.381 22.4824 184.381 21.9551ZM199.867 7.98047V10.4766H189.584V7.98047H199.867ZM193.064 3.35742H196.316V22.2891C196.316 22.9336 196.416 23.4199 196.615 23.748C196.814 24.0762 197.072 24.293 197.389 24.3984C197.705 24.5039 198.045 24.5566 198.408 24.5566C198.678 24.5566 198.959 24.5332 199.252 24.4863C199.557 24.4277 199.785 24.3809 199.938 24.3457L199.955 27C199.697 27.082 199.357 27.1582 198.936 27.2285C198.525 27.3105 198.027 27.3516 197.441 27.3516C196.645 27.3516 195.912 27.1934 195.244 26.877C194.576 26.5605 194.043 26.0332 193.645 25.2949C193.258 24.5449 193.064 23.5371 193.064 22.2715V3.35742Z" fill="black"/>
</svg>
